<svg xmlns="http://www.w3.org/2000/svg" xmlns:xlink="http://www.w3.org/1999/xlink" width="364" height="223.778" viewBox="0 0 364 223.778"><defs><style>.a{fill:url(#a);}.b{fill:#1c1c1c;}.c{fill:#fff;}.d{opacity:0.9;}</style><radialGradient id="a" cx="277.549" cy="147.853" r="432.612" gradientTransform="matrix(-0.615, 0, 0, 0.54, 448.179, 68.023)" gradientUnits="userSpaceOnUse"><stop offset="0" stop-color="#bfbfbf"/><stop offset="0.337" stop-color="#a8a8a8"/><stop offset="1" stop-color="#727272"/></radialGradient></defs><g transform="translate(0 0)"><g transform="translate(0 0)"><g transform="translate(0 0)"><rect class="a" width="363.999" height="223.778" rx="10"/></g></g><rect class="b" width="364" height="48.391" transform="translate(0 38.678)"/><rect class="c" width="61.051" height="24.893" transform="translate(166.038 106.258)"/><g class="d" transform="translate(40.721 106.258)"><rect class="c" width="125.316" height="1.532"/><rect class="c" width="125.316" height="1.532" transform="translate(0 2.596)"/><rect class="c" width="125.316" height="1.532" transform="translate(0 5.191)"/><rect class="c" width="125.316" height="1.532" transform="translate(0 7.787)"/><rect class="c" width="125.316" height="1.532" transform="translate(0 10.383)"/><rect class="c" width="125.316" height="1.532" transform="translate(0 12.978)"/><rect class="c" width="125.316" height="1.532" transform="translate(0 15.574)"/><rect class="c" width="125.316" height="1.532" transform="translate(0 18.17)"/><rect class="c" width="125.316" height="1.532" transform="translate(0 20.765)"/><rect class="c" width="125.316" height="1.532" transform="translate(0 23.361)"/></g></g></svg>