<svg xmlns="http://www.w3.org/2000/svg" xmlns:xlink="http://www.w3.org/1999/xlink" width="280" height="172.14" viewBox="0 0 280 172.14"><defs><style>.a,.e{fill:none;}.b{fill:url(#a);}.c{clip-path:url(#b);}.d{opacity:0.2;}.e{stroke:#53aee0;stroke-linecap:round;stroke-width:0.6px;}</style><radialGradient id="a" cx="69.31" cy="113.856" r="332.774" gradientTransform="translate(26.699 52.38) scale(0.615 0.54)" gradientUnits="userSpaceOnUse"><stop offset="0" stop-color="#5a7589"/><stop offset="0.323" stop-color="#436175"/><stop offset="0.549" stop-color="#315266"/><stop offset="1" stop-color="#124768"/></radialGradient><clipPath id="b"><rect class="a" width="280" height="172.14"/></clipPath></defs><rect class="b" width="280" height="172.14" rx="10"/><g class="c"><g class="d" transform="translate(-152.464 15.206)"><path class="e" d="M747.561,368.97c26.662-30.758,129.059-133.284,316.806-141a586.11,586.11,0,0,1,161.891,15.535" transform="translate(-747.56 -227.457)"/><path class="e" d="M747.561,369.118c26.918-30.463,130.885-132.772,318.794-137.91a551.163,551.163,0,0,1,159.9,18.382" transform="translate(-747.56 -227.144)"/><path class="e" d="M747.561,369.294c27.175-30.062,132.727-131.815,320.782-134.847a525.094,525.094,0,0,1,157.914,21.39" transform="translate(-747.56 -226.837)"/><path class="e" d="M747.561,369.457c27.429-29.734,134.563-131.117,322.77-131.76A498.38,498.38,0,0,1,1226.26,262" transform="translate(-747.56 -226.541)"/><path class="e" d="M747.561,369.619c27.681-29.417,136.4-130.446,324.758-128.663a473.816,473.816,0,0,1,153.943,27.215" transform="translate(-747.56 -226.251)"/><path class="e" d="M747.56,369.781c27.929-29.111,138.248-129.806,326.746-125.561a451.335,451.335,0,0,1,151.952,30.115" transform="translate(-747.56 -225.968)"/><path class="e" d="M747.561,369.941c28.18-28.82,140.1-129.193,328.733-122.449A430.7,430.7,0,0,1,1226.258,280.5" transform="translate(-747.56 -225.693)"/><path class="e" d="M747.561,370.1c28.426-28.539,141.951-128.614,330.72-119.332,59.372,2.92,109.614,18.725,147.976,35.89" transform="translate(-747.56 -225.424)"/><path class="e" d="M747.561,370.263C776.236,341.99,891.375,242.2,1080.27,254.056c58.563,3.677,108.137,20.588,145.989,38.769" transform="translate(-747.56 -225.163)"/><path class="e" d="M747.561,370.426c28.92-28.016,145.682-127.555,334.7-113.077,57.754,4.424,106.657,22.44,144,41.637" transform="translate(-747.56 -224.91)"/><path class="e" d="M747.561,370.589c29.166-27.773,147.56-127.079,336.684-109.94,56.943,5.16,105.172,24.28,142.01,44.495" transform="translate(-747.56 -224.663)"/><path class="e" d="M747.561,370.754c29.412-27.545,149.449-126.641,338.671-106.8,56.135,5.887,103.7,26.111,140.024,47.346" transform="translate(-747.56 -224.423)"/><path class="e" d="M747.561,370.92c29.657-27.325,151.347-126.242,340.66-103.648,55.328,6.6,102.216,27.931,138.038,50.191" transform="translate(-747.56 -224.191)"/><path class="e" d="M747.561,371.088c29.9-27.116,153.259-125.883,342.647-100.495,54.522,7.309,100.739,29.74,136.051,53.027" transform="translate(-747.56 -223.966)"/><path class="e" d="M747.561,371.258c30.146-26.92,155.185-125.567,344.635-97.335,53.716,8,99.26,31.538,134.06,55.85" transform="translate(-747.56 -223.748)"/><path class="e" d="M747.561,371.431c30.394-26.738,157.129-125.3,346.623-94.173,52.911,8.691,97.782,33.322,132.072,58.664" transform="translate(-747.56 -223.538)"/><path class="e" d="M747.561,371.6C778.2,344.976,906.7,246.236,1096.172,280.611c52.144,9.285,96.306,35.019,130.087,61.415" transform="translate(-747.56 -223.343)"/><path class="e" d="M747.561,371.785c30.884-26.405,161.068-124.89,350.6-87.833,51.285,10.028,94.841,37.076,128.1,64.464" transform="translate(-747.56 -223.138)"/></g></g></svg>